<mxfile host="Electron" modified="2024-05-29T05:46:40.395Z" agent="Mozilla/5.0 (Windows NT 10.0; Win64; x64) AppleWebKit/537.36 (KHTML, like Gecko) draw.io/22.0.3 Chrome/114.0.5735.289 Electron/25.8.4 Safari/537.36" etag="aouMyr6n5bI-qmUoQIEE" version="22.0.3" type="device">
  <diagram name="第1頁" id="RSBEpMBs8AiLDluXtR-K">
    <mxGraphModel dx="1235" dy="740" grid="1" gridSize="10" guides="1" tooltips="1" connect="1" arrows="1" fold="1" page="1" pageScale="1" pageWidth="827" pageHeight="1169" math="0" shadow="0">
      <root>
        <mxCell id="0" />
        <mxCell id="1" parent="0" />
        <mxCell id="c4u263SX0K0IFKFpcmCq-19" value="" style="shape=folder;fontStyle=1;spacingTop=10;tabWidth=110;tabHeight=40;tabPosition=left;html=1;whiteSpace=wrap;" vertex="1" parent="1">
          <mxGeometry x="435" y="1019" width="520" height="150" as="geometry" />
        </mxCell>
        <mxCell id="c4u263SX0K0IFKFpcmCq-20" value="Database" style="text;html=1;align=center;verticalAlign=middle;resizable=0;points=[];autosize=1;strokeColor=none;fillColor=none;" vertex="1" parent="1">
          <mxGeometry x="450" y="1023" width="70" height="30" as="geometry" />
        </mxCell>
        <mxCell id="c4u263SX0K0IFKFpcmCq-13" value="" style="shape=folder;fontStyle=1;spacingTop=10;tabWidth=110;tabHeight=40;tabPosition=left;html=1;whiteSpace=wrap;" vertex="1" parent="1">
          <mxGeometry x="435" y="790" width="520" height="150" as="geometry" />
        </mxCell>
        <mxCell id="c4u263SX0K0IFKFpcmCq-14" value="System" style="text;html=1;align=center;verticalAlign=middle;resizable=0;points=[];autosize=1;strokeColor=none;fillColor=none;" vertex="1" parent="1">
          <mxGeometry x="460" y="794" width="60" height="30" as="geometry" />
        </mxCell>
        <mxCell id="c4u263SX0K0IFKFpcmCq-1" value="" style="shape=folder;fontStyle=1;spacingTop=10;tabWidth=110;tabHeight=40;tabPosition=left;html=1;whiteSpace=wrap;" vertex="1" parent="1">
          <mxGeometry x="190" y="570" width="1010" height="150" as="geometry" />
        </mxCell>
        <mxCell id="c4u263SX0K0IFKFpcmCq-2" value="User Interface" style="text;html=1;align=center;verticalAlign=middle;resizable=0;points=[];autosize=1;strokeColor=none;fillColor=none;" vertex="1" parent="1">
          <mxGeometry x="195" y="574" width="100" height="30" as="geometry" />
        </mxCell>
        <mxCell id="c4u263SX0K0IFKFpcmCq-4" value="UserUI" style="shape=folder;fontStyle=1;spacingTop=10;tabWidth=40;tabHeight=14;tabPosition=left;html=1;whiteSpace=wrap;" vertex="1" parent="1">
          <mxGeometry x="210" y="640" width="70" height="50" as="geometry" />
        </mxCell>
        <mxCell id="c4u263SX0K0IFKFpcmCq-5" value="LoginPage" style="shape=folder;fontStyle=1;spacingTop=10;tabWidth=40;tabHeight=14;tabPosition=left;html=1;whiteSpace=wrap;" vertex="1" parent="1">
          <mxGeometry x="480" y="640" width="70" height="50" as="geometry" />
        </mxCell>
        <mxCell id="c4u263SX0K0IFKFpcmCq-8" value="ForgotPasswordPage" style="shape=folder;fontStyle=1;spacingTop=10;tabWidth=40;tabHeight=14;tabPosition=left;html=1;whiteSpace=wrap;" vertex="1" parent="1">
          <mxGeometry x="590" y="640" width="130" height="50" as="geometry" />
        </mxCell>
        <mxCell id="c4u263SX0K0IFKFpcmCq-9" value="NavigationPage" style="shape=folder;fontStyle=1;spacingTop=10;tabWidth=40;tabHeight=14;tabPosition=left;html=1;whiteSpace=wrap;" vertex="1" parent="1">
          <mxGeometry x="760" y="640" width="100" height="50" as="geometry" />
        </mxCell>
        <mxCell id="c4u263SX0K0IFKFpcmCq-10" value="FavoriteRotuePage" style="shape=folder;fontStyle=1;spacingTop=10;tabWidth=40;tabHeight=14;tabPosition=left;html=1;whiteSpace=wrap;" vertex="1" parent="1">
          <mxGeometry x="900" y="640" width="120" height="50" as="geometry" />
        </mxCell>
        <mxCell id="c4u263SX0K0IFKFpcmCq-11" value="MileagePage" style="shape=folder;fontStyle=1;spacingTop=10;tabWidth=40;tabHeight=14;tabPosition=left;html=1;whiteSpace=wrap;" vertex="1" parent="1">
          <mxGeometry x="1060" y="640" width="120" height="50" as="geometry" />
        </mxCell>
        <mxCell id="c4u263SX0K0IFKFpcmCq-15" value="UserSystem" style="shape=folder;fontStyle=1;spacingTop=10;tabWidth=40;tabHeight=14;tabPosition=left;html=1;whiteSpace=wrap;" vertex="1" parent="1">
          <mxGeometry x="455" y="860" width="80" height="50" as="geometry" />
        </mxCell>
        <mxCell id="c4u263SX0K0IFKFpcmCq-16" value="RouteSystem" style="shape=folder;fontStyle=1;spacingTop=10;tabWidth=40;tabHeight=14;tabPosition=left;html=1;whiteSpace=wrap;" vertex="1" parent="1">
          <mxGeometry x="575" y="860" width="80" height="50" as="geometry" />
        </mxCell>
        <mxCell id="c4u263SX0K0IFKFpcmCq-17" value="FavoriteSystem" style="shape=folder;fontStyle=1;spacingTop=10;tabWidth=40;tabHeight=14;tabPosition=left;html=1;whiteSpace=wrap;" vertex="1" parent="1">
          <mxGeometry x="695" y="860" width="100" height="50" as="geometry" />
        </mxCell>
        <mxCell id="c4u263SX0K0IFKFpcmCq-18" value="MileageSystem" style="shape=folder;fontStyle=1;spacingTop=10;tabWidth=40;tabHeight=14;tabPosition=left;html=1;whiteSpace=wrap;" vertex="1" parent="1">
          <mxGeometry x="835" y="860" width="100" height="50" as="geometry" />
        </mxCell>
        <mxCell id="c4u263SX0K0IFKFpcmCq-21" value="UserDB" style="shape=folder;fontStyle=1;spacingTop=10;tabWidth=40;tabHeight=14;tabPosition=left;html=1;whiteSpace=wrap;" vertex="1" parent="1">
          <mxGeometry x="455" y="1090" width="80" height="50" as="geometry" />
        </mxCell>
        <mxCell id="c4u263SX0K0IFKFpcmCq-22" value="RouteDB" style="shape=folder;fontStyle=1;spacingTop=10;tabWidth=40;tabHeight=14;tabPosition=left;html=1;whiteSpace=wrap;" vertex="1" parent="1">
          <mxGeometry x="575" y="1090" width="80" height="50" as="geometry" />
        </mxCell>
        <mxCell id="c4u263SX0K0IFKFpcmCq-23" value="FavoriteDB" style="shape=folder;fontStyle=1;spacingTop=10;tabWidth=40;tabHeight=14;tabPosition=left;html=1;whiteSpace=wrap;" vertex="1" parent="1">
          <mxGeometry x="695" y="1090" width="80" height="50" as="geometry" />
        </mxCell>
        <mxCell id="c4u263SX0K0IFKFpcmCq-24" value="MileageDB" style="shape=folder;fontStyle=1;spacingTop=10;tabWidth=40;tabHeight=14;tabPosition=left;html=1;whiteSpace=wrap;" vertex="1" parent="1">
          <mxGeometry x="825" y="1090" width="100" height="50" as="geometry" />
        </mxCell>
        <mxCell id="c4u263SX0K0IFKFpcmCq-25" value="" style="endArrow=classic;html=1;rounded=0;" edge="1" parent="1" source="c4u263SX0K0IFKFpcmCq-4" target="c4u263SX0K0IFKFpcmCq-15">
          <mxGeometry width="50" height="50" relative="1" as="geometry">
            <mxPoint x="390" y="730" as="sourcePoint" />
            <mxPoint x="440" y="680" as="targetPoint" />
          </mxGeometry>
        </mxCell>
        <mxCell id="c4u263SX0K0IFKFpcmCq-26" value="&lt;font style=&quot;font-size: 16px;&quot;&gt;Uses&lt;/font&gt;" style="edgeLabel;html=1;align=center;verticalAlign=middle;resizable=0;points=[];" vertex="1" connectable="0" parent="c4u263SX0K0IFKFpcmCq-25">
          <mxGeometry x="-0.4575" y="-3" relative="1" as="geometry">
            <mxPoint y="-1" as="offset" />
          </mxGeometry>
        </mxCell>
        <mxCell id="c4u263SX0K0IFKFpcmCq-27" value="" style="endArrow=classic;html=1;rounded=0;" edge="1" parent="1" source="c4u263SX0K0IFKFpcmCq-5" target="c4u263SX0K0IFKFpcmCq-15">
          <mxGeometry width="50" height="50" relative="1" as="geometry">
            <mxPoint x="390" y="720" as="sourcePoint" />
            <mxPoint x="440" y="670" as="targetPoint" />
          </mxGeometry>
        </mxCell>
        <mxCell id="c4u263SX0K0IFKFpcmCq-31" value="&lt;font style=&quot;font-size: 16px;&quot;&gt;Authenticates&lt;/font&gt;" style="edgeLabel;html=1;align=center;verticalAlign=middle;resizable=0;points=[];" vertex="1" connectable="0" parent="c4u263SX0K0IFKFpcmCq-27">
          <mxGeometry x="-0.3827" y="-1" relative="1" as="geometry">
            <mxPoint as="offset" />
          </mxGeometry>
        </mxCell>
        <mxCell id="c4u263SX0K0IFKFpcmCq-28" value="RegisterPage" style="shape=folder;fontStyle=1;spacingTop=10;tabWidth=40;tabHeight=14;tabPosition=left;html=1;whiteSpace=wrap;" vertex="1" parent="1">
          <mxGeometry x="330" y="640" width="100" height="50" as="geometry" />
        </mxCell>
        <mxCell id="c4u263SX0K0IFKFpcmCq-29" value="" style="endArrow=classic;html=1;rounded=0;" edge="1" parent="1" source="c4u263SX0K0IFKFpcmCq-28" target="c4u263SX0K0IFKFpcmCq-15">
          <mxGeometry width="50" height="50" relative="1" as="geometry">
            <mxPoint x="496" y="700" as="sourcePoint" />
            <mxPoint x="289" y="880" as="targetPoint" />
          </mxGeometry>
        </mxCell>
        <mxCell id="c4u263SX0K0IFKFpcmCq-30" value="&lt;font style=&quot;font-size: 16px;&quot;&gt;Registers&lt;/font&gt;" style="edgeLabel;html=1;align=center;verticalAlign=middle;resizable=0;points=[];" vertex="1" connectable="0" parent="c4u263SX0K0IFKFpcmCq-29">
          <mxGeometry x="-0.3421" y="-3" relative="1" as="geometry">
            <mxPoint as="offset" />
          </mxGeometry>
        </mxCell>
        <mxCell id="c4u263SX0K0IFKFpcmCq-32" value="" style="endArrow=classic;html=1;rounded=0;" edge="1" parent="1" source="c4u263SX0K0IFKFpcmCq-8" target="c4u263SX0K0IFKFpcmCq-15">
          <mxGeometry width="50" height="50" relative="1" as="geometry">
            <mxPoint x="590" y="720" as="sourcePoint" />
            <mxPoint x="517" y="870" as="targetPoint" />
          </mxGeometry>
        </mxCell>
        <mxCell id="c4u263SX0K0IFKFpcmCq-33" value="&lt;font style=&quot;font-size: 16px;&quot;&gt;Resets Password&lt;/font&gt;" style="edgeLabel;html=1;align=center;verticalAlign=middle;resizable=0;points=[];" vertex="1" connectable="0" parent="c4u263SX0K0IFKFpcmCq-32">
          <mxGeometry x="-0.4407" y="1" relative="1" as="geometry">
            <mxPoint x="-12" y="9" as="offset" />
          </mxGeometry>
        </mxCell>
        <mxCell id="c4u263SX0K0IFKFpcmCq-34" value="" style="endArrow=classic;html=1;rounded=0;" edge="1" parent="1" source="c4u263SX0K0IFKFpcmCq-9" target="c4u263SX0K0IFKFpcmCq-16">
          <mxGeometry width="50" height="50" relative="1" as="geometry">
            <mxPoint x="750" y="710" as="sourcePoint" />
            <mxPoint x="800" y="660" as="targetPoint" />
          </mxGeometry>
        </mxCell>
        <mxCell id="c4u263SX0K0IFKFpcmCq-35" value="&lt;font style=&quot;font-size: 16px;&quot;&gt;Navigates&lt;/font&gt;" style="edgeLabel;html=1;align=center;verticalAlign=middle;resizable=0;points=[];" vertex="1" connectable="0" parent="c4u263SX0K0IFKFpcmCq-34">
          <mxGeometry x="-0.2425" y="-3" relative="1" as="geometry">
            <mxPoint x="13" y="-7" as="offset" />
          </mxGeometry>
        </mxCell>
        <mxCell id="c4u263SX0K0IFKFpcmCq-36" value="" style="endArrow=classic;html=1;rounded=0;" edge="1" parent="1" source="c4u263SX0K0IFKFpcmCq-10" target="c4u263SX0K0IFKFpcmCq-17">
          <mxGeometry width="50" height="50" relative="1" as="geometry">
            <mxPoint x="810" y="710" as="sourcePoint" />
            <mxPoint x="860" y="660" as="targetPoint" />
          </mxGeometry>
        </mxCell>
        <mxCell id="c4u263SX0K0IFKFpcmCq-37" value="&lt;font style=&quot;font-size: 16px;&quot;&gt;Manages Routes&lt;/font&gt;" style="edgeLabel;html=1;align=center;verticalAlign=middle;resizable=0;points=[];" vertex="1" connectable="0" parent="c4u263SX0K0IFKFpcmCq-36">
          <mxGeometry x="-0.328" y="-1" relative="1" as="geometry">
            <mxPoint as="offset" />
          </mxGeometry>
        </mxCell>
        <mxCell id="c4u263SX0K0IFKFpcmCq-38" value="" style="endArrow=classic;html=1;rounded=0;" edge="1" parent="1" source="c4u263SX0K0IFKFpcmCq-11" target="c4u263SX0K0IFKFpcmCq-18">
          <mxGeometry width="50" height="50" relative="1" as="geometry">
            <mxPoint x="660" y="710" as="sourcePoint" />
            <mxPoint x="710" y="660" as="targetPoint" />
          </mxGeometry>
        </mxCell>
        <mxCell id="c4u263SX0K0IFKFpcmCq-39" value="&lt;font style=&quot;font-size: 16px;&quot;&gt;Calculates&lt;/font&gt;" style="edgeLabel;html=1;align=center;verticalAlign=middle;resizable=0;points=[];" vertex="1" connectable="0" parent="c4u263SX0K0IFKFpcmCq-38">
          <mxGeometry x="-0.214" y="2" relative="1" as="geometry">
            <mxPoint x="30" y="-13" as="offset" />
          </mxGeometry>
        </mxCell>
        <mxCell id="c4u263SX0K0IFKFpcmCq-40" value="" style="endArrow=classic;html=1;rounded=0;" edge="1" parent="1" source="c4u263SX0K0IFKFpcmCq-15" target="c4u263SX0K0IFKFpcmCq-21">
          <mxGeometry width="50" height="50" relative="1" as="geometry">
            <mxPoint x="760" y="860" as="sourcePoint" />
            <mxPoint x="810" y="810" as="targetPoint" />
          </mxGeometry>
        </mxCell>
        <mxCell id="c4u263SX0K0IFKFpcmCq-41" value="&lt;font style=&quot;font-size: 16px;&quot;&gt;Stores User Data&lt;/font&gt;" style="edgeLabel;html=1;align=center;verticalAlign=middle;resizable=0;points=[];" vertex="1" connectable="0" parent="c4u263SX0K0IFKFpcmCq-40">
          <mxGeometry x="-0.2527" y="3" relative="1" as="geometry">
            <mxPoint y="-1" as="offset" />
          </mxGeometry>
        </mxCell>
        <mxCell id="c4u263SX0K0IFKFpcmCq-42" value="" style="endArrow=classic;html=1;rounded=0;" edge="1" parent="1" source="c4u263SX0K0IFKFpcmCq-16" target="c4u263SX0K0IFKFpcmCq-22">
          <mxGeometry width="50" height="50" relative="1" as="geometry">
            <mxPoint x="575" y="920" as="sourcePoint" />
            <mxPoint x="384" y="1100" as="targetPoint" />
          </mxGeometry>
        </mxCell>
        <mxCell id="c4u263SX0K0IFKFpcmCq-43" value="&lt;font style=&quot;font-size: 16px;&quot;&gt;Stores Route Data&lt;/font&gt;" style="edgeLabel;html=1;align=center;verticalAlign=middle;resizable=0;points=[];" vertex="1" connectable="0" parent="c4u263SX0K0IFKFpcmCq-42">
          <mxGeometry x="-0.2527" y="3" relative="1" as="geometry">
            <mxPoint x="2" y="23" as="offset" />
          </mxGeometry>
        </mxCell>
        <mxCell id="c4u263SX0K0IFKFpcmCq-44" value="" style="endArrow=classic;html=1;rounded=0;" edge="1" parent="1" source="c4u263SX0K0IFKFpcmCq-17" target="c4u263SX0K0IFKFpcmCq-23">
          <mxGeometry width="50" height="50" relative="1" as="geometry">
            <mxPoint x="488" y="930" as="sourcePoint" />
            <mxPoint x="297" y="1110" as="targetPoint" />
          </mxGeometry>
        </mxCell>
        <mxCell id="c4u263SX0K0IFKFpcmCq-45" value="&lt;font style=&quot;font-size: 16px;&quot;&gt;Stores Favorite Data&lt;/font&gt;" style="edgeLabel;html=1;align=center;verticalAlign=middle;resizable=0;points=[];" vertex="1" connectable="0" parent="c4u263SX0K0IFKFpcmCq-44">
          <mxGeometry x="-0.2527" y="3" relative="1" as="geometry">
            <mxPoint y="-1" as="offset" />
          </mxGeometry>
        </mxCell>
        <mxCell id="c4u263SX0K0IFKFpcmCq-46" value="" style="endArrow=classic;html=1;rounded=0;" edge="1" parent="1" source="c4u263SX0K0IFKFpcmCq-18" target="c4u263SX0K0IFKFpcmCq-24">
          <mxGeometry width="50" height="50" relative="1" as="geometry">
            <mxPoint x="498" y="940" as="sourcePoint" />
            <mxPoint x="307" y="1120" as="targetPoint" />
          </mxGeometry>
        </mxCell>
        <mxCell id="c4u263SX0K0IFKFpcmCq-47" value="&lt;font style=&quot;font-size: 16px;&quot;&gt;Stores Mileage Data&lt;/font&gt;" style="edgeLabel;html=1;align=center;verticalAlign=middle;resizable=0;points=[];" vertex="1" connectable="0" parent="c4u263SX0K0IFKFpcmCq-46">
          <mxGeometry x="-0.2527" y="3" relative="1" as="geometry">
            <mxPoint x="1" y="23" as="offset" />
          </mxGeometry>
        </mxCell>
      </root>
    </mxGraphModel>
  </diagram>
</mxfile>
